<svg width="140" height="140" viewBox="0 0 140 140" fill="none" xmlns="http://www.w3.org/2000/svg">
<path d="M0 47.3333C0 34.0785 10.7452 23.3333 24 23.3333H48.8889C57.5437 23.3333 65.965 20.5262 72.8889 15.3333L82.6667 8C89.5905 2.80711 98.0119 0 106.667 0H116C129.255 0 140 10.7452 140 24V116C140 129.255 129.255 140 116 140H24C10.7452 140 0 129.255 0 116V47.3333Z" fill="url(#paint0_linear_29_2015)"/>
<path d="M0 47.3333C0 34.0785 10.7452 23.3333 24 23.3333H48.8889C57.5437 23.3333 65.965 20.5262 72.8889 15.3333L82.6667 8C89.5905 2.80711 98.0119 0 106.667 0H116C129.255 0 140 10.7452 140 24V116C140 129.255 129.255 140 116 140H24C10.7452 140 0 129.255 0 116V47.3333Z" fill="url(#paint1_linear_29_2015)"/>
<g clip-path="url(#clip0_29_2015)">
<path d="M76.2219 84.4446L69.1108 77.3335V71.6802C71.173 70.9335 72.6663 68.9779 72.6663 66.6668C72.6663 63.7157 70.2841 61.3335 67.333 61.3335C64.3819 61.3335 61.9997 63.7157 61.9997 66.6668C61.9997 68.9779 63.493 70.9335 65.5552 71.6802V77.3335L58.4441 84.4446H51.333V93.3335H60.2219V87.9113L67.333 80.4446L74.4441 87.9113V93.3335H83.333V84.4446H76.2219Z" fill="white"/>
</g>
<defs>
<linearGradient id="paint0_linear_29_2015" x1="70" y1="7.00417e-08" x2="70" y2="140" gradientUnits="userSpaceOnUse">
<stop stop-color="#D9D9D9"/>
<stop offset="1" stop-color="#737373"/>
</linearGradient>
<linearGradient id="paint1_linear_29_2015" x1="56.7778" y1="21" x2="70" y2="148.556" gradientUnits="userSpaceOnUse">
<stop stop-color="#01E4D8"/>
<stop offset="1" stop-color="#9D6CFF"/>
</linearGradient>
<clipPath id="clip0_29_2015">
<rect width="42.6667" height="42.6667" fill="white" transform="translate(46 56)"/>
</clipPath>
</defs>
</svg>
