<svg width="140" height="140" viewBox="0 0 140 140" fill="none" xmlns="http://www.w3.org/2000/svg">
<path d="M0 47.3333C0 34.0785 10.7452 23.3333 24 23.3333H48.8889C57.5437 23.3333 65.965 20.5262 72.8889 15.3333L82.6667 8C89.5905 2.80711 98.0119 0 106.667 0H116C129.255 0 140 10.7452 140 24V116C140 129.255 129.255 140 116 140H24C10.7452 140 0 129.255 0 116V47.3333Z" fill="url(#paint0_linear_29_2050)"/>
<path d="M0 47.3333C0 34.0785 10.7452 23.3333 24 23.3333H48.8889C57.5437 23.3333 65.965 20.5262 72.8889 15.3333L82.6667 8C89.5905 2.80711 98.0119 0 106.667 0H116C129.255 0 140 10.7452 140 24V116C140 129.255 129.255 140 116 140H24C10.7452 140 0 129.255 0 116V47.3333Z" fill="url(#paint1_linear_29_2050)"/>
<g clip-path="url(#clip0_29_2050)">
<path d="M81.5557 63.1111H53.1112C51.1557 63.1111 49.5557 64.7111 49.5557 66.6667V88C49.5557 89.9556 51.1557 91.5556 53.1112 91.5556H81.5557C83.5112 91.5556 85.1112 89.9556 85.1112 88V66.6667C85.1112 64.7111 83.5112 63.1111 81.5557 63.1111ZM81.5557 88H53.1112V66.6667H81.5557V88ZM53.1112 56H81.5557V59.5556H53.1112V56ZM53.1112 95.1111H81.5557V98.6667H53.1112V95.1111ZM67.3334 77.3333C69.7868 77.3333 71.7779 75.3422 71.7779 72.8889C71.7779 70.4356 69.7868 68.4444 67.3334 68.4444C64.8801 68.4444 62.889 70.4356 62.889 72.8889C62.889 75.3422 64.8801 77.3333 67.3334 77.3333ZM67.3334 71.1111C68.3112 71.1111 69.1112 71.9111 69.1112 72.8889C69.1112 73.8667 68.3112 74.6667 67.3334 74.6667C66.3557 74.6667 65.5557 73.8667 65.5557 72.8889C65.5557 71.9111 66.3557 71.1111 67.3334 71.1111ZM76.2223 84.4267C76.2223 80.7111 70.3379 79.1111 67.3334 79.1111C64.329 79.1111 58.4446 80.7111 58.4446 84.4267V86.2222H76.2223V84.4267ZM61.6623 83.5556C62.7468 82.6311 65.2712 81.7778 67.3334 81.7778C69.4134 81.7778 71.9379 82.6311 73.0223 83.5556H61.6623Z" fill="white"/>
</g>
<defs>
<linearGradient id="paint0_linear_29_2050" x1="70" y1="7.00417e-08" x2="70" y2="140" gradientUnits="userSpaceOnUse">
<stop stop-color="#D9D9D9"/>
<stop offset="1" stop-color="#737373"/>
</linearGradient>
<linearGradient id="paint1_linear_29_2050" x1="56.7778" y1="21" x2="70" y2="148.556" gradientUnits="userSpaceOnUse">
<stop stop-color="#01E4D8"/>
<stop offset="1" stop-color="#9D6CFF"/>
</linearGradient>
<clipPath id="clip0_29_2050">
<rect width="42.6667" height="42.6667" fill="white" transform="translate(46 56)"/>
</clipPath>
</defs>
</svg>
