<svg width="140" height="140" viewBox="0 0 140 140" fill="none" xmlns="http://www.w3.org/2000/svg">
<path d="M0 47.3333C0 34.0785 10.7452 23.3333 24 23.3333H48.8889C57.5437 23.3333 65.965 20.5262 72.8889 15.3333L82.6667 8C89.5905 2.80711 98.0119 0 106.667 0H116C129.255 0 140 10.7452 140 24V116C140 129.255 129.255 140 116 140H24C10.7452 140 0 129.255 0 116V47.3333Z" fill="url(#paint0_linear_29_2043)"/>
<path d="M0 47.3333C0 34.0785 10.7452 23.3333 24 23.3333H48.8889C57.5437 23.3333 65.965 20.5262 72.8889 15.3333L82.6667 8C89.5905 2.80711 98.0119 0 106.667 0H116C129.255 0 140 10.7452 140 24V116C140 129.255 129.255 140 116 140H24C10.7452 140 0 129.255 0 116V47.3333Z" fill="url(#paint1_linear_29_2043)"/>
<g clip-path="url(#clip0_29_2043)">
<path d="M78.0002 59.5557H63.778L53.1113 70.2223V91.5557C53.1113 93.5112 54.7113 95.1112 56.6669 95.1112H78.0002C79.9558 95.1112 81.5558 93.5112 81.5558 91.5557V63.1112C81.5558 61.1557 79.9558 59.5557 78.0002 59.5557ZM78.0002 63.1112V91.5557H56.6669V71.6979L65.2536 63.1112H78.0002ZM58.4447 86.2223H62.0002V89.7779H58.4447V86.2223ZM72.6669 86.2223H76.2224V89.7779H72.6669V86.2223ZM58.4447 75.5557H62.0002V82.6668H58.4447V75.5557ZM65.5558 82.6668H69.1113V89.7779H65.5558V82.6668ZM65.5558 75.5557H69.1113V79.1112H65.5558V75.5557ZM72.6669 75.5557H76.2224V82.6668H72.6669V75.5557Z" fill="white"/>
</g>
<defs>
<linearGradient id="paint0_linear_29_2043" x1="70" y1="7.00417e-08" x2="70" y2="140" gradientUnits="userSpaceOnUse">
<stop stop-color="#D9D9D9"/>
<stop offset="1" stop-color="#737373"/>
</linearGradient>
<linearGradient id="paint1_linear_29_2043" x1="56.7778" y1="21" x2="70" y2="148.556" gradientUnits="userSpaceOnUse">
<stop stop-color="#01E4D8"/>
<stop offset="1" stop-color="#9D6CFF"/>
</linearGradient>
<clipPath id="clip0_29_2043">
<rect width="42.6667" height="42.6667" fill="white" transform="translate(46 56)"/>
</clipPath>
</defs>
</svg>
