<svg width="140" height="140" viewBox="0 0 140 140" fill="none" xmlns="http://www.w3.org/2000/svg">
<path d="M0 47.3333C0 34.0785 10.7452 23.3333 24 23.3333H48.8889C57.5437 23.3333 65.965 20.5262 72.8889 15.3333L82.6667 8C89.5905 2.80711 98.0119 0 106.667 0H116C129.255 0 140 10.7452 140 24V116C140 129.255 129.255 140 116 140H24C10.7452 140 0 129.255 0 116V47.3333Z" fill="url(#paint0_linear_29_2029)"/>
<path d="M0 47.3333C0 34.0785 10.7452 23.3333 24 23.3333H48.8889C57.5437 23.3333 65.965 20.5262 72.8889 15.3333L82.6667 8C89.5905 2.80711 98.0119 0 106.667 0H116C129.255 0 140 10.7452 140 24V116C140 129.255 129.255 140 116 140H24C10.7452 140 0 129.255 0 116V47.3333Z" fill="url(#paint1_linear_29_2029)"/>
<g clip-path="url(#clip0_29_2029)">
<path d="M69.1112 63.1112V67.8579L67.3334 69.6357L65.5557 67.8579V63.1112H69.1112ZM81.5557 75.5557V79.1112H76.809L75.0312 77.3334L76.809 75.5557H81.5557ZM57.8579 75.5557L59.6357 77.3334L57.8579 79.1112H53.1112V75.5557H57.8579ZM67.3334 85.0312L69.1112 86.809V91.5557H65.5557V86.809L67.3334 85.0312ZM72.6668 59.5557H62.0001V69.3334L67.3334 74.6668L72.6668 69.3334V59.5557ZM85.1112 72.0001H75.3334L70.0001 77.3334L75.3334 82.6668H85.1112V72.0001ZM59.3334 72.0001H49.5557V82.6668H59.3334L64.6668 77.3334L59.3334 72.0001ZM67.3334 80.0001L62.0001 85.3334V95.1112H72.6668V85.3334L67.3334 80.0001Z" fill="white"/>
</g>
<defs>
<linearGradient id="paint0_linear_29_2029" x1="70" y1="7.00417e-08" x2="70" y2="140" gradientUnits="userSpaceOnUse">
<stop stop-color="#D9D9D9"/>
<stop offset="1" stop-color="#737373"/>
</linearGradient>
<linearGradient id="paint1_linear_29_2029" x1="56.7778" y1="21" x2="70" y2="148.556" gradientUnits="userSpaceOnUse">
<stop stop-color="#01E4D8"/>
<stop offset="1" stop-color="#9D6CFF"/>
</linearGradient>
<clipPath id="clip0_29_2029">
<rect width="42.6667" height="42.6667" fill="white" transform="translate(46 56)"/>
</clipPath>
</defs>
</svg>
