<svg width="140" height="140" viewBox="0 0 140 140" fill="none" xmlns="http://www.w3.org/2000/svg">
<path d="M0 47.3333C0 34.0785 10.7452 23.3333 24 23.3333H48.8889C57.5437 23.3333 65.965 20.5262 72.8889 15.3333L82.6667 8C89.5905 2.80711 98.0119 0 106.667 0H116C129.255 0 140 10.7452 140 24V116C140 129.255 129.255 140 116 140H24C10.7452 140 0 129.255 0 116V47.3333Z" fill="url(#paint0_linear_29_2022)"/>
<path d="M0 47.3333C0 34.0785 10.7452 23.3333 24 23.3333H48.8889C57.5437 23.3333 65.965 20.5262 72.8889 15.3333L82.6667 8C89.5905 2.80711 98.0119 0 106.667 0H116C129.255 0 140 10.7452 140 24V116C140 129.255 129.255 140 116 140H24C10.7452 140 0 129.255 0 116V47.3333Z" fill="url(#paint1_linear_29_2022)"/>
<g clip-path="url(#clip0_29_2022)">
<path d="M72.6663 72.0002H61.9997V82.6668H72.6663V72.0002ZM69.1108 79.1113H65.5552V75.5557H69.1108V79.1113ZM83.333 75.5557V72.0002H79.7775V68.4446C79.7775 66.4891 78.1775 64.8891 76.2219 64.8891H72.6663V61.3335H69.1108V64.8891H65.5552V61.3335H61.9997V64.8891H58.4441C56.4886 64.8891 54.8886 66.4891 54.8886 68.4446V72.0002H51.333V75.5557H54.8886V79.1113H51.333V82.6668H54.8886V86.2224C54.8886 88.1779 56.4886 89.7779 58.4441 89.7779H61.9997V93.3335H65.5552V89.7779H69.1108V93.3335H72.6663V89.7779H76.2219C78.1775 89.7779 79.7775 88.1779 79.7775 86.2224V82.6668H83.333V79.1113H79.7775V75.5557H83.333ZM76.2219 86.2224H58.4441V68.4446H76.2219V86.2224Z" fill="white"/>
</g>
<defs>
<linearGradient id="paint0_linear_29_2022" x1="70" y1="7.00417e-08" x2="70" y2="140" gradientUnits="userSpaceOnUse">
<stop stop-color="#D9D9D9"/>
<stop offset="1" stop-color="#737373"/>
</linearGradient>
<linearGradient id="paint1_linear_29_2022" x1="56.7778" y1="21" x2="70" y2="148.556" gradientUnits="userSpaceOnUse">
<stop stop-color="#01E4D8"/>
<stop offset="1" stop-color="#9D6CFF"/>
</linearGradient>
<clipPath id="clip0_29_2022">
<rect width="42.6667" height="42.6667" fill="white" transform="translate(46 56)"/>
</clipPath>
</defs>
</svg>
