<svg width="140" height="140" viewBox="0 0 140 140" fill="none" xmlns="http://www.w3.org/2000/svg">
<path d="M0 47.3333C0 34.0785 10.7452 23.3333 24 23.3333H48.8889C57.5437 23.3333 65.965 20.5262 72.8889 15.3333L82.6667 8C89.5905 2.80711 98.0119 0 106.667 0H116C129.255 0 140 10.7452 140 24V116C140 129.255 129.255 140 116 140H24C10.7452 140 0 129.255 0 116V47.3333Z" fill="url(#paint0_linear_29_2036)"/>
<path d="M0 47.3333C0 34.0785 10.7452 23.3333 24 23.3333H48.8889C57.5437 23.3333 65.965 20.5262 72.8889 15.3333L82.6667 8C89.5905 2.80711 98.0119 0 106.667 0H116C129.255 0 140 10.7452 140 24V116C140 129.255 129.255 140 116 140H24C10.7452 140 0 129.255 0 116V47.3333Z" fill="url(#paint1_linear_29_2036)"/>
<g clip-path="url(#clip0_29_2036)">
<path d="M51.334 75.5557H65.5562V61.3335H51.334V75.5557ZM54.8895 64.8891H62.0007V72.0002H54.8895V64.8891Z" fill="white"/>
<path d="M51.334 93.3336H65.5562V79.1113H51.334V93.3336ZM54.8895 82.6669H62.0007V89.778H54.8895V82.6669Z" fill="white"/>
<path d="M69.1113 61.3335V75.5557H83.3336V61.3335H69.1113ZM79.778 72.0002H72.6669V64.8891H79.778V72.0002Z" fill="white"/>
<path d="M83.3339 89.7778H79.7783V93.3334H83.3339V89.7778Z" fill="white"/>
<path d="M72.6669 79.1113H69.1113V82.6669H72.6669V79.1113Z" fill="white"/>
<path d="M76.2225 82.667H72.667V86.2225H76.2225V82.667Z" fill="white"/>
<path d="M72.6669 86.2222H69.1113V89.7777H72.6669V86.2222Z" fill="white"/>
<path d="M76.2225 89.7778H72.667V93.3334H76.2225V89.7778Z" fill="white"/>
<path d="M79.7782 86.2222H76.2227V89.7777H79.7782V86.2222Z" fill="white"/>
<path d="M79.7782 79.1113H76.2227V82.6669H79.7782V79.1113Z" fill="white"/>
<path d="M83.3339 82.667H79.7783V86.2225H83.3339V82.667Z" fill="white"/>
</g>
<defs>
<linearGradient id="paint0_linear_29_2036" x1="70" y1="7.00417e-08" x2="70" y2="140" gradientUnits="userSpaceOnUse">
<stop stop-color="#D9D9D9"/>
<stop offset="1" stop-color="#737373"/>
</linearGradient>
<linearGradient id="paint1_linear_29_2036" x1="56.7778" y1="21" x2="70" y2="148.556" gradientUnits="userSpaceOnUse">
<stop stop-color="#01E4D8"/>
<stop offset="1" stop-color="#9D6CFF"/>
</linearGradient>
<clipPath id="clip0_29_2036">
<rect width="42.6667" height="42.6667" fill="white" transform="translate(46 56)"/>
</clipPath>
</defs>
</svg>
