<svg width="164" height="35" viewBox="0 0 164 35" fill="none" xmlns="http://www.w3.org/2000/svg">
<path d="M62.028 1.50263H46.0045C46.0045 1.50263 40.8623 0.765653 34.5263 7.54581C34.5263 7.54581 32.7357 9.7076 30.6697 9.7076H6.93281C3.12206 9.7076 0 13.0485 0 17.1265V26.8545C0 30.9816 3.12206 34.2734 6.93281 34.2734H22.9563C22.9563 34.2734 28.0985 35.0104 34.4345 28.2302C34.4345 28.2302 36.2251 26.0684 38.2911 26.0684H61.9821C65.8387 26.0684 68.9149 22.7275 68.9149 18.6495V8.92149C68.9608 4.84357 65.8387 1.50263 62.028 1.50263ZM61.2934 17.9126H45.9586C45.9586 17.9126 40.8163 17.1756 34.4804 23.9558C34.4804 23.9558 32.6898 26.1175 30.6237 26.1175H7.66741V17.9126H22.9563C22.9563 17.9126 23.14 17.9617 23.4155 17.9617C24.8387 17.9617 29.2004 17.4704 34.4345 11.8694C34.4345 11.8694 36.2251 9.7076 38.2911 9.7076H61.2475V17.9126H61.2934Z" fill="white"/>
<path d="M76.6284 12.3607V1.55176H78.0058V10.985H83.3317V1.55176H84.709V10.985H85.6273V14.0312H84.2499V12.3116H76.6284V12.3607Z" fill="white"/>
<path d="M89.3461 1.55176V11.4272L93.8915 1.55176H96.3249V12.3607H94.9475V2.48526L90.4021 12.3607H87.9688V1.55176H89.3461Z" fill="white"/>
<path d="M104.222 0.765625H105.599V1.84652C109.226 1.89565 111.109 3.56612 111.109 6.75968C111.109 9.95323 109.226 11.6728 105.599 11.6728V12.7537H104.222V11.6728C100.595 11.6728 98.6665 9.95323 98.6665 6.75968C98.6665 3.51699 100.549 1.84652 104.222 1.84652V0.765625ZM104.222 3.32047C101.329 3.32047 100.228 4.3031 100.228 6.80881C100.228 9.31452 101.329 10.248 104.222 10.2971V3.32047ZM105.553 10.248C108.446 10.248 109.502 9.26539 109.502 6.75968C109.502 4.25397 108.4 3.32047 105.553 3.27133V10.248Z" fill="white"/>
<path d="M113.404 12.3607V1.55176H117.445C120.245 1.55176 121.164 2.33786 121.164 4.59792C121.164 6.9071 120.245 7.6932 117.445 7.6932H114.782V12.3116H113.404V12.3607ZM114.782 6.41578H116.94C119.052 6.41578 119.74 5.9736 119.74 4.64705C119.74 3.32049 119.052 2.87831 116.94 2.87831H114.782V6.41578Z" fill="white"/>
<path d="M128.143 1.20782C131.265 1.20782 133.331 3.46788 133.331 6.90709C133.331 10.3463 131.219 12.6555 128.143 12.6555C125.021 12.6555 122.955 10.3463 122.955 6.90709C122.955 3.51701 125.021 1.20782 128.143 1.20782ZM124.516 6.17011V7.69319C124.516 9.70759 125.847 11.0833 127.775 11.0833H128.556C130.484 11.0833 131.816 9.70759 131.816 7.69319V6.17011C131.816 4.15572 130.484 2.78003 128.556 2.78003H127.775C125.801 2.78003 124.516 4.15572 124.516 6.17011Z" fill="white"/>
<path d="M139.988 1.5517C141.778 1.5517 142.972 2.68172 142.972 4.35219C142.972 5.33483 142.421 6.17006 141.411 6.61225V6.8579C142.88 7.25096 143.477 7.9388 143.477 9.26535C143.477 11.3289 142.283 12.3115 139.62 12.3115H135.718V1.50256H139.988V1.5517ZM137.095 2.82912V6.17006H140.079C140.906 6.17006 141.686 5.33483 141.686 4.45046C141.686 3.56609 140.998 2.87825 140.079 2.87825H137.095V2.82912ZM137.095 7.49661V11.0341H139.115C141.044 11.0341 142.054 10.3954 142.054 9.16709C142.054 7.98793 141.09 7.44748 138.794 7.44748H137.095V7.49661Z" fill="white"/>
<path d="M144.854 12.3607L148.298 1.55176H150.502L153.945 12.3607H152.476L151.741 10.0515H147.012L146.278 12.3607H144.854ZM151.374 8.6267L149.446 2.63265L147.517 8.6267H151.374Z" fill="white"/>
<path d="M158.491 7.59494C156.838 7.30015 156.241 6.41578 156.241 4.59792C156.241 2.28873 157.16 1.55176 159.96 1.55176H164.001V12.3607H162.623V7.74233H160.052L157.343 12.3607H155.69L158.491 7.59494ZM157.711 4.64705C157.711 5.9736 158.399 6.41578 160.511 6.41578H162.669V2.82918H160.511C158.353 2.82918 157.711 3.27136 157.711 4.64705Z" fill="white"/>
<path d="M81.5871 17.8634C83.699 17.8634 85.306 18.9443 86.0865 20.9096L84.6632 21.1061C84.1123 19.9269 83.2399 19.3865 82.0003 19.3865H81.2198C79.2914 19.3865 77.96 20.7622 77.96 22.7766V24.3488C77.96 26.3632 79.2914 27.7388 81.2198 27.7388H82.0003C83.4695 27.7388 84.6173 26.9036 84.9846 25.5279L86.4079 25.7245C85.7192 27.9354 83.9286 29.2619 81.5871 29.2619C78.465 29.2619 76.3989 26.9527 76.3989 23.5135C76.3989 20.1726 78.465 17.8634 81.5871 17.8634Z" fill="white"/>
<path d="M89.9428 18.2073V28.0828L94.4882 18.2073H96.9215V29.0163H95.5442V19.1408L90.9988 29.0163H88.5654V18.2073H89.9428Z" fill="white"/>
<path d="M99.7686 29.0163V18.2073H101.146V22.8257H106.747V18.2073H108.125V29.0163H106.747V24.2505H101.146V29.0163H99.7686Z" fill="white"/>
<path d="M110.925 29.0163V18.2073H117.996V19.583H112.303V22.8257H117.261V24.2014H112.303V27.444H118.134V28.9671H110.925V29.0163Z" fill="white"/>
<path d="M120.383 29.0163V18.2073H124.423C127.224 18.2073 128.142 18.9934 128.142 21.2535C128.142 23.5626 127.224 24.3488 124.423 24.3488H121.76V28.9671H120.383V29.0163ZM121.76 23.0713H123.918C126.03 23.0713 126.719 22.6291 126.719 21.3026C126.719 19.976 126.03 19.5339 123.918 19.5339H121.76V23.0713Z" fill="white"/>
<path d="M130.163 18.2073H137.371V19.583H131.54V29.0163H130.163V18.2073Z" fill="white"/>
<path d="M140.631 18.2073V28.0828L145.176 18.2073H147.61V29.0163H146.232V19.1408L141.687 29.0163H139.253V18.2073H140.631Z" fill="white"/>
<path d="M152.66 24.2505C151.007 23.9557 150.41 23.0713 150.41 21.2535C150.41 18.9443 151.328 18.2073 154.129 18.2073H158.169V29.0163H156.792V24.3488H154.266L151.558 28.9671H149.905L152.66 24.2505ZM151.833 21.3026C151.833 22.6291 152.522 23.0713 154.634 23.0713H156.792V19.5339H154.634C152.522 19.4847 151.833 19.9269 151.833 21.3026Z" fill="white"/>
</svg>
